<?xml version="1.0" standalone="no"?>
<!DOCTYPE svg PUBLIC "-//W3C//DTD SVG 20010904//EN"
 "http://www.w3.org/TR/2001/REC-SVG-20010904/DTD/svg10.dtd">
<svg version="1.0" xmlns="http://www.w3.org/2000/svg"
 width="200.000000pt" height="200.000000pt" viewBox="0 0 200.000000 200.000000"
 preserveAspectRatio="xMidYMid meet">
<metadata>
Created by potrace 1.10, written by Peter Selinger 2001-2011
</metadata>
<g transform="translate(0.000000,200.000000) scale(0.100000,-0.100000)"
fill="#f2f6f2" stroke="none">
<path d="M250 1039 c-37 -15 -78 -58 -85 -90 -9 -41 11 -94 46 -124 55 -45
152 -27 184 35 33 64 5 149 -60 176 -39 16 -50 17 -85 3z m-4 -69 c-26 -29
-36 -49 -36 -73 0 -24 -3 -28 -10 -17 -19 29 -11 71 19 101 16 16 37 29 46 29
13 0 8 -10 -19 -40z m124 1 c15 -30 12 -83 -8 -108 -9 -12 -30 -25 -47 -29
l-30 -7 43 47 c30 32 41 51 34 59 -13 18 -22 57 -11 57 4 0 13 -9 19 -19z
m-44 -2 c6 -11 -56 -83 -65 -74 -2 3 8 19 24 35 16 16 26 32 24 35 -3 2 -21
-11 -39 -30 -31 -32 -33 -37 -18 -51 14 -14 19 -13 52 16 20 18 39 30 42 28 7
-7 -64 -68 -79 -68 -18 0 -37 21 -37 39 0 18 59 81 76 81 7 0 16 -5 20 -11z"/>
<path d="M462 923 c2 -45 7 -77 13 -76 6 1 11 11 13 23 5 28 36 25 50 -5 8
-16 17 -23 27 -19 11 4 14 12 9 23 -4 9 -6 33 -5 55 2 52 -20 76 -71 76 l-39
0 3 -77z m73 17 c0 -8 -10 -16 -22 -18 -18 -3 -23 2 -23 18 0 16 5 21 23 18
12 -2 22 -10 22 -18z"/>
<path d="M1236 981 c-25 -28 -12 -57 30 -71 27 -9 33 -15 25 -23 -9 -9 -17 -8
-32 2 -16 9 -24 10 -33 1 -8 -9 -5 -16 13 -31 28 -23 40 -24 69 -3 35 24 26
66 -15 79 -18 5 -33 15 -33 22 0 16 5 16 31 3 15 -9 21 -7 26 6 13 34 -53 47
-81 15z"/>
<path d="M1350 971 c0 -11 -6 -22 -12 -25 -10 -3 -9 -8 2 -18 9 -7 14 -21 12
-31 -5 -25 16 -47 44 -47 27 0 32 17 9 26 -8 4 -15 15 -15 25 0 10 7 19 15 19
8 0 15 7 15 15 0 8 -7 15 -15 15 -8 0 -15 9 -15 20 0 13 -7 20 -20 20 -13 0
-20 -7 -20 -19z"/>
<path d="M1770 970 c0 -11 -4 -20 -10 -20 -5 0 -10 -7 -10 -15 0 -8 4 -15 9
-15 6 0 11 -14 13 -31 2 -22 10 -34 26 -40 28 -11 45 18 19 33 -24 13 -21 38
4 38 14 0 19 5 17 18 -2 10 -11 16 -22 14 -14 -3 -16 1 -11 17 5 17 2 21 -14
21 -14 0 -21 -6 -21 -20z"/>
<path d="M600 940 c-26 -26 -25 -55 1 -81 25 -25 72 -23 77 4 3 14 -1 17 -21
12 -14 -4 -28 -2 -31 4 -5 7 4 11 24 11 38 0 49 23 25 50 -23 25 -50 25 -75 0z
m54 -19 c3 -5 -3 -11 -14 -14 -20 -5 -26 3 -13 16 9 10 21 9 27 -2z"/>
<path d="M716 947 c-24 -18 -15 -44 19 -57 35 -13 31 -23 -5 -15 -23 5 -30 3
-30 -8 0 -20 45 -30 71 -17 26 14 22 53 -6 58 -11 2 -24 9 -30 14 -7 7 -1 8
18 4 24 -6 28 -4 25 11 -4 23 -37 28 -62 10z"/>
<path d="M804 945 c-4 -10 -3 -34 2 -54 9 -35 11 -36 57 -38 l48 -2 -3 51 c-4
62 -25 77 -30 21 -4 -50 -31 -52 -38 -4 -5 38 -26 52 -36 26z"/>
<path d="M937 954 c-10 -10 -9 -102 1 -108 15 -9 29 9 28 38 -1 45 22 44 26
-1 4 -52 32 -53 36 0 2 20 7 37 12 37 5 0 10 -17 12 -37 4 -54 32 -52 36 3 2
30 -2 45 -17 58 -17 15 -23 16 -36 6 -12 -10 -18 -10 -30 0 -11 9 -19 10 -28
1 -9 -7 -17 -7 -23 -1 -6 6 -13 7 -17 4z"/>
<path d="M1120 940 c-26 -26 -25 -55 1 -81 25 -25 72 -23 77 4 3 15 0 18 -17
12 -11 -3 -26 -3 -33 2 -9 5 -1 10 22 13 39 6 50 29 25 54 -22 22 -51 20 -75
-4z m54 -19 c3 -5 -3 -11 -14 -14 -20 -5 -26 3 -13 16 9 10 21 9 27 -2z"/>
<path d="M1434 945 c-3 -7 -4 -32 -2 -56 4 -57 32 -62 36 -6 3 29 7 37 23 37
10 0 19 5 19 10 0 6 1 13 3 18 4 13 -74 10 -79 -3z"/>
<path d="M1542 944 c-31 -21 -30 -69 3 -90 29 -19 75 -12 75 12 0 12 -6 15
-23 11 -12 -4 -29 -2 -37 3 -11 7 -5 10 21 10 43 0 54 18 33 49 -18 25 -41 27
-72 5z m43 -24 c3 -5 -1 -10 -10 -10 -9 0 -13 5 -10 10 3 6 8 10 10 10 2 0 7
-4 10 -10z"/>
<path d="M1662 944 c-51 -35 -8 -115 54 -100 32 9 25 32 -9 28 -14 -1 -28 2
-32 8 -4 6 8 10 29 10 32 0 36 3 36 25 0 14 -8 29 -19 35 -26 13 -33 13 -59
-6z m43 -24 c3 -6 -4 -10 -17 -10 -18 0 -20 2 -8 10 19 12 18 12 25 0z"/>
</g>
</svg>
